**ABCDEFGHIJKLMNOPQRSTUVWXYZabcdefghijklmnopqrstuvwxyz**************************
**PARASOLID !"#$%&'()*+,-./:;<=>?@[\]^_`{|}~0123456789**************************
**PART1;
MC=unknown;
MC_MODEL=unknown;
MC_ID=unknown;
OS=unknown;
OS_RELEASE=unknown;
FRU=Parasolid 37.0.209;
APPL=Onshape;
SITE=unknown;
USER=unknown;
FORMAT=text;
GUISE=transmit;
KEY=BTGapi::writeModels_.xmt;
FILE=BTGapi::writeModels_.xmt;
DATE=2025-07-23T19:27:13 (UTC);
**PART2;
SCH=SCH_3700209_36001;
USFLD_SIZE=0;
**PART3;
**END_OF_HEADER*****************************************************************
T51 : TRANSMIT FILE created by modeller version 370020923 SCH_3700209_36001_1300
6231 0 12 36 CCCI7 lattice222 0 CCCI4 mesh1006 0 I8 polyline1008 0 CCCCCCCDI5 ow
ner1040 0 CCCI16 boundary_lattice222 0 CCCI13 boundary_mesh1006 0 I17 boundary_p
olyline1008 0 CCCA16 index_map_offset0 0 1 dA9 index_map82 0 A17 node_id_index_m
ap82 0 A20 schema_embedding_map82 0 A5 child12 0 A14 lowest_node_id0 0 1 dA16 me
sh_offset_data206 0 Z1 1115 2 3 0 0 0 0 0 0 0 1e3 1e-8 0 4 5 1 0 1 2 6 0 7 8 9 0
 0 10 11 12 0 0 0 0 0 0 0 81 255 1 2 1115 13 1 14 0 0 0 15 70 11 CI9 list_type0
 0 1 uI10 notransmit0 0 1 lCCCDCCDI12 finger_index0 0 1 dI12 finger_block1012 0
 CZ3 0 4 T1 0 0 3 20 1 16 16 13 255 6 49 0 1 0 17 0 0 18 0 51 255 7 1031 0 19 20
 0 0 +.017 -.005 .333 0 -1 0 .008 0 0 -1 30 255 8 938 0 11 21 0 0 -.017 -.005 .3
25 0 1 0 29 255 9 895 0 12 22 0 -.017 -.005 .4 19 9 CCCCCCI5 frame230 0 CA5 owne
r12 0 Z10 48 0 1 18 0 23 0 V0 16 255 11 936 0 ?24 0 25 8 0 0 1 18 255 12 892 0 2
6 0 27 9 ?1 17 255 26 0 28 29 30 12 31 32 0 33 +18 27 888 0 34 12 35 22 ?1 17 34
 0 36 37 38 27 39 40 0 41 +18 35 884 0 42 27 43 44 ?1 29 22 891 0 27 44 9 .017 -
.005 .4 29 44 887 0 35 45 22 .025 -.005 .392 29 45 883 0 43 46 44 .025 -.005 .33
3 18 43 880 0 47 35 48 45 ?1 29 46 879 0 48 49 45 .017 -.005 .325 18 48 876 0 24
 43 50 46 ?1 29 49 865 0 50 51 46 -.025 -.005 .392 18 50 862 0 52 48 53 49 ?1 29
 51 861 0 53 54 49 -.025 -.005 .333 18 53 858 0 55 50 56 51 ?1 29 54 837 0 56 57
 51 .025 .005 .392 18 56 834 0 58 53 59 54 ?1 29 57 833 0 59 60 54 .025 .005 .33
3 18 59 830 0 61 56 62 57 ?1 29 60 829 0 62 63 57 .017 .005 .4 18 62 826 0 64 59
 65 60 ?1 29 63 825 0 65 66 60 -.017 .005 .4 18 65 822 0 67 62 68 63 ?1 29 66 82
1 0 68 69 63 -.025 .005 .392 18 68 818 0 70 65 71 66 ?1 29 69 817 0 71 72 66 -.0
25 .005 .333 18 71 814 0 73 68 74 69 ?1 29 72 813 0 74 75 69 .017 .005 .325 18 7
4 810 0 76 71 77 72 ?1 29 75 804 0 77 78 72 -.017 -.005 .325 18 77 801 0 79 74 8
0 75 ?1 29 78 800 0 80 81 75 -.017 .005 .325 18 80 797 0 82 77 83 78 ?1 29 81 50
9 0 83 84 78 -.003855490173712975 -.005 .325 18 83 505 0 85 80 86 81 ?1 29 84 21
5 0 86 87 81 -.015 0 .28 18 86 213 0 88 83 89 84 ?1 29 87 113 0 90 91 84 .03 0 .
31 18 90 92 0 92 93 94 87 ?1 29 91 114 0 94 95 87 .03 0 .23 18 94 96 0 96 90 97
 91 ?1 29 95 115 0 97 98 91 -.03 0 .23 18 97 100 0 99 94 100 95 ?1 29 98 116 0 1
00 101 95 -.03 0 .31 18 100 104 0 102 97 103 98 ?1 29 101 44 0 89 104 98 .03 .02
 .31 18 89 42 0 105 86 106 101 ?1 29 104 39 0 106 107 101 .03 .02 .23 18 106 37
 0 108 89 109 104 ?1 29 107 34 0 109 110 104 -.03 .02 .23 18 109 32 0 111 106 93
 107 ?1 29 110 29 0 93 112 107 -.03 .02 .31 18 93 27 0 113 109 90 110 ?1 29 112
 303 0 103 114 110 -.015 0 .31 18 103 268 0 115 100 116 112 ?1 29 114 304 0 116
 117 112 .015 918485099360515e-33 .31 18 116 271 0 118 103 119 114 ?1 29 117 306
 0 119 120 114 .015 0 .28 18 119 269 0 121 116 122 117 ?1 29 120 750 0 122 123 1
17 .003855490173712975 -.005 .325 18 122 630 0 124 119 125 120 ?1 29 123 751 0 1
25 126 120 -.003855490173712975 .005 .325 18 125 629 0 127 122 128 123 ?1 29 126
 752 0 128 129 123 .003855490173712975 .005 .325 18 128 634 0 130 125 131 126 ?1
 29 129 755 0 132 133 126 -.015 .005 .4 18 132 653 0 134 135 136 129 ?1 29 133 7
56 0 136 137 129 -.015 .005 .335 18 136 651 0 138 132 139 133 ?1 29 137 757 0 13
9 140 133 .015 .005 .335 18 139 647 0 141 136 142 137 ?1 29 140 758 0 142 143 13
7 .015 .005 .4 18 142 643 0 144 139 0 140 ?1 29 143 763 0 131 145 140 -.015 -.00
5 .4 18 131 649 0 146 128 147 143 ?1 29 145 764 0 147 148 143 -.015 -.005 .335 1
8 147 645 0 149 131 150 145 ?1 29 148 765 0 150 151 145 .015 -.005 .335 18 150 6
41 0 152 147 135 148 ?1 29 151 766 0 135 0 148 .015 -.005 .4 18 135 659 0 37 150
 132 151 ?1 17 37 0 36 153 34 135 41 154 0 155 +15 255 36 708 0 156 157 0 17 153
 0 36 158 37 150 159 160 0 161 -17 41 0 162 163 155 27 37 154 0 164 -16 154 889
 0 ?37 160 165 166 0 0 1 17 155 0 162 41 144 135 167 168 0 159 -15 162 684 0 41
 169 0 17 144 0 162 155 163 142 170 171 0 167 +17 167 0 172 173 159 142 155 168
 0 174 +16 168 570 0 ?167 175 176 177 0 0 1 17 159 0 172 167 152 135 153 160 0 0
 +15 172 688 0 173 178 0 17 152 0 172 159 173 150 141 176 0 153 -16 160 567 0 ?1
59 179 154 180 0 0 1 16 179 573 0 ?161 181 160 182 0 0 1 30 180 745 0 160 166 18
2 0 +.015 -.005 .3675 -186816374335964e-30 0 1 30 166 746 0 154 183 180 0 +.02 -
.005 .4 -1 0 0 30 182 744 0 179 180 184 0 +-815320033709099e-31 -.005 .335 1 0 0
 30 184 743 0 181 182 185 0 +-.015 -.005 .3675 320256641718795e-30 0 -1 16 181 5
79 0 ?186 187 179 184 0 0 1 30 185 742 0 187 184 188 0 +-.02 -.005 .4 -1 0 0 16
 187 603 0 ?33 189 181 185 0 0 1 30 188 741 0 189 185 190 0 +-.025 -.005 .3625 -
1850371707708595e-31 0 1 16 189 859 0 ?191 192 187 188 0 0 1 30 190 740 0 193 18
8 194 0 +-.015 .005 .325 -1 0 0 16 193 811 0 ?130 195 196 190 196 197 1 30 194 7
39 0 195 190 198 0 +.025 .005 .3625 -1850371707708595e-31 0 1 16 195 831 0 ?199
 171 193 194 0 0 1 30 198 738 0 171 194 200 0 +.02 .005 .4 -1 0 0 16 171 827 0 ?
144 201 195 198 0 0 1 30 200 737 0 201 198 202 0 +.015 .005 .3675 -1868163743359
64e-30 0 1 16 201 626 0 ?174 203 171 200 0 0 1 30 202 736 0 203 200 204 0 +-8153
20033709099e-31 .005 .335 1 0 0 16 203 623 0 ?205 206 201 202 0 0 1 30 204 735 0
 206 202 207 0 +-.015 .005 .3675 320256641718795e-30 0 -1 16 206 620 0 ?208 209
 203 204 0 0 1 30 207 734 0 209 204 210 0 +-.02 .005 .4 -1 0 0 16 209 585 0 ?30
 211 206 207 0 0 1 30 210 733 0 211 207 212 0 +-.025 .005 .3625 -185037170770859
5e-31 0 1 16 211 815 0 ?213 214 209 210 0 0 1 30 212 730 0 192 210 215 0 +-.015
 -.005 .4 0 1 0 16 192 588 0 ?134 216 189 212 0 0 1 30 215 729 0 216 212 217 0 +
-.015 -.005 .335 0 1 0 16 216 582 0 ?138 176 192 215 0 0 1 30 217 728 0 176 215
 177 0 +.015 -.005 .335 0 1 0 16 176 576 0 ?141 168 216 217 0 0 1 30 177 727 0 1
68 217 218 0 +.015 -.005 .4 0 1 0 31 255 218 490 0 219 177 220 0 +0 386612307428
832e-33 .325 0 0 1 1 0 0 .00631385812951141 16 219 458 0 ?221 222 223 218 175 22
3 1 31 220 393 0 222 218 224 0 +0 386612307428832e-33 .31 0 0 1 1 0 0 .006313858
12951141 16 222 366 0 ?225 226 219 220 0 0 1 31 224 302 0 227 220 228 0 +0 91848
5099360515e-33 .28 0 0 1 1 0 0 .015 16 227 245 0 ?229 230 226 224 0 0 1 31 228 3
01 0 226 224 231 0 +0 918485099360515e-33 .31 0 0 1 1 0 0 .015 16 226 260 0 ?232
 227 222 228 0 0 1 30 231 9 0 233 228 234 0 +-3469446951953615e-33 .02 .31 1 0 0
 16 233 7 0 ?235 236 237 231 0 0 1 30 234 14 0 236 231 238 0 +-.03 .02 .27 0 0 1
 16 236 12 0 ?239 240 233 234 0 0 1 31 238 19 0 240 234 241 0 +0 .02 .23 0 -1 0
 0 0 -1 .03 16 240 17 0 ?242 243 236 238 0 0 1 30 241 24 0 243 238 244 0 +.03 .0
2 .27 0 0 1 16 243 22 0 ?245 246 240 241 0 0 1 30 244 112 0 247 241 248 0 +-3469
446951953615e-33 0 .31 1 0 0 16 247 88 0 ?249 250 230 244 230 230 1 30 248 111 0
 250 244 251 0 +-.03 0 .27 0 0 1 16 250 84 0 ?252 253 247 248 0 0 1 31 251 110 0
 253 248 254 0 +0 0 .23 0 -1 0 0 0 -1 .03 16 253 80 0 ?255 237 250 251 0 0 1 30
 254 109 0 237 251 256 0 +.03 0 .27 0 0 1 16 237 76 0 ?257 233 253 254 0 0 1 30
 256 133 0 246 254 258 0 +.03 .02 .31 0 -1 0 16 246 117 0 ?259 260 243 256 0 0 1
 30 258 134 0 260 256 261 0 +.03 .02 .23 0 -1 0 16 260 118 0 ?96 262 246 258 0 0
 1 30 261 135 0 262 258 263 0 +-.03 .02 .23 0 -1 0 16 262 119 0 ?99 264 260 261
 0 0 1 30 263 136 0 264 261 265 0 +-.03 .02 .31 0 -1 0 16 264 120 0 ?102 266 262
 263 0 0 1 30 265 216 0 266 263 267 0 +-693889390390723e-32 0 .28 -1 0 0 16 266
 214 0 ?268 269 264 265 0 0 1 30 267 218 0 269 265 270 0 --.015 0 .28 0 0 1 16 2
69 217 0 ?271 272 266 267 0 0 1 30 270 221 0 272 267 273 0 +.015 0 .28 0 0 1 16
 272 219 0 ?118 274 269 270 0 0 1 30 273 807 0 275 270 276 0 +-.017 -.005 .325 0
 1 0 16 275 805 0 ?277 278 197 273 0 0 1 31 276 840 0 278 273 279 0 -.017 .005 .
333 0 -1 0 0 0 -1 .008 16 278 838 0 ?76 280 275 276 0 0 1 31 279 845 0 280 276 2
81 0 -.017 .005 .392 0 -1 0 0 0 -1 .008 16 280 843 0 ?58 282 278 279 0 0 1 31 28
1 850 0 282 279 283 0 --.017 .005 .392 0 -1 0 0 0 -1 .008 16 282 848 0 ?67 284 2
80 281 0 0 1 31 283 855 0 284 281 285 0 --.017 .005 .333 0 -1 0 0 0 -1 .008 16 2
84 853 0 ?73 286 282 283 0 0 1 30 285 868 0 286 283 287 0 +-.025 .005 .392 0 1 0
 16 286 866 0 ?288 289 284 285 0 0 1 30 287 873 0 289 285 290 0 --.025 -.005 .33
3 0 1 0 16 289 871 0 ?55 291 286 287 0 0 1 31 290 898 0 291 287 292 0 +.017 -.00
5 .333 0 -1 0 0 0 -1 .008 16 291 896 0 ?47 40 289 290 0 0 1 31 292 903 0 40 290
 293 0 +.017 -.005 .392 0 -1 0 0 0 -1 .008 16 40 901 0 ?34 294 291 292 0 0 1 31
 293 908 0 294 292 295 0 +-.017 -.005 .392 0 -1 0 0 0 -1 .008 16 294 906 0 ?52 2
96 40 293 0 0 1 31 295 913 0 296 293 297 0 +-.017 -.005 .333 0 -1 0 0 0 -1 .008
 16 296 911 0 ?79 32 294 295 0 0 1 30 297 918 0 32 295 298 0 --.017 -.005 .4 0 1
 0 16 32 916 0 ?26 299 296 297 0 0 1 30 298 923 0 299 297 300 0 +.017 -.005 .4 0
 1 0 16 299 921 0 ?163 301 32 298 0 0 1 30 300 928 0 301 298 21 0 +.025 .005 .33
3 0 1 0 16 301 926 0 ?302 25 299 300 0 0 1 30 21 933 0 25 300 8 0 -.025 -.005 .3
92 0 1 0 16 25 931 0 ?42 11 301 21 0 0 1 17 42 0 303 304 199 35 305 25 0 38 +15
 303 680 0 199 306 0 17 304 0 303 302 42 43 38 165 0 307 -17 199 0 303 42 302 56
 308 195 0 305 +17 305 0 309 64 39 56 42 25 0 0 -17 38 0 36 34 47 35 304 165 0 3
9 +17 47 0 36 38 310 43 311 291 0 304 +16 165 881 0 ?38 154 312 183 0 0 1 17 39
 0 309 305 164 35 34 40 0 0 -15 309 999 0 39 313 0 17 164 0 309 39 64 27 163 299
 0 0 -17 64 0 309 164 305 62 58 280 0 163 -17 163 0 162 144 41 62 164 299 0 170
 +17 170 0 314 58 174 62 144 171 0 0 -15 314 712 0 315 316 0 17 58 0 314 308 170
 56 64 280 0 199 +17 174 0 314 170 205 142 173 201 0 0 +17 205 0 314 174 208 139
 317 203 0 0 +17 173 0 172 152 167 139 174 201 0 205 -17 208 0 314 205 318 136 3
19 206 0 0 +17 317 0 320 149 141 136 205 203 0 208 -15 320 692 0 317 321 0 17 14
9 0 320 161 317 147 138 216 0 158 -17 141 0 320 317 161 139 152 176 0 173 +17 16
1 0 320 141 149 150 158 179 0 0 +17 158 0 36 322 153 147 161 179 0 186 -17 322 0
 36 33 158 131 186 181 0 0 -17 186 0 323 138 146 147 322 181 0 0 +15 323 696 0 3
19 324 0 17 138 0 323 319 186 136 149 216 0 317 +17 146 0 323 186 319 131 134 19
2 0 29 -17 319 0 323 146 138 132 208 206 0 0 -17 134 0 28 30 29 132 146 192 0 31
8 +17 29 0 28 134 26 131 33 187 0 322 -15 28 700 0 30 325 0 17 33 0 36 52 322 12
 29 187 0 326 +17 52 0 36 156 33 50 326 294 0 191 +17 326 0 327 31 328 12 52 294
 0 0 -15 327 978 0 326 329 0 17 31 0 327 70 326 65 26 32 0 0 -17 328 0 327 326 7
0 50 288 286 0 0 -17 70 0 327 328 31 68 67 282 0 288 -17 288 0 330 331 191 68 32
8 286 0 213 +15 330 704 0 331 332 0 17 331 0 330 55 288 71 213 211 0 333 -17 191
 0 330 288 55 50 156 189 0 328 +17 213 0 314 67 73 68 331 211 0 0 +17 67 0 314 3
18 213 65 70 282 0 30 +17 73 0 314 213 315 71 82 284 0 331 +17 315 0 314 73 334
 80 127 196 0 0 +17 82 0 335 336 333 80 73 284 0 277 -15 335 957 0 337 338 0 17
 336 0 335 337 82 77 277 275 0 0 -17 333 0 335 82 337 71 55 289 0 0 -17 277 0 33
9 127 340 80 336 275 0 315 +15 339 672 0 340 341 0 17 127 0 339 342 277 125 315
 196 0 334 -17 340 0 339 277 342 77 85 214 0 336 +17 342 0 339 340 127 83 343 22
3 0 344 +17 85 0 36 345 79 83 340 214 0 342 -16 214 543 0 ?340 312 211 346 274 3
12 1 16 312 877 0 ?124 165 214 346 214 274 1 30 346 748 0 312 0 183 0 +-.015 -.0
05 .325 -1 0 0 16 274 515 0 ?344 197 272 346 312 214 1 17 344 0 347 348 348 83 3
45 274 0 349 +16 197 520 0 ?334 275 274 190 193 196 1 17 334 0 314 315 130 125 3
50 197 0 343 +16 196 614 0 ?315 193 0 190 197 193 1 17 130 0 314 334 76 128 351
 193 0 352 +17 350 0 353 221 221 128 334 197 0 354 -17 343 0 355 354 349 125 342
 223 0 221 -15 355 469 0 354 356 357 17 354 0 355 358 343 128 221 219 0 0 -17 34
9 0 355 343 358 83 348 359 0 0 -16 223 501 0 ?342 219 359 218 219 359 1 17 221 0
 353 350 350 125 354 219 0 0 +15 353 521 0 350 360 0 14 255 360 471 0 ?341 356 3
53 6 361 +17 17 341 356 23 14 341 669 0 ?362 360 339 6 363 +362 362 362 360 23 1
4 356 475 0 ?360 364 355 6 365 -0 0 360 364 23 50 255 361 487 0 360 363 365 0 +-
.005 0 .325 0 0 1 1 0 0 14 17 517 0 ?366 0 347 6 361 +360 360 366 0 23 13 23 137
 0 0 0 0 0 0 10 17 14 366 128 0 ?367 17 368 6 369 -0 0 367 17 23 15 347 474 0 34
8 17 0 17 348 0 347 344 344 122 349 359 0 0 +16 359 506 0 ?348 223 175 218 223 1
75 1 16 175 511 0 ?352 359 168 218 359 219 1 17 352 0 370 351 124 128 358 175 0
 350 +15 370 676 0 351 362 0 17 351 0 370 24 352 74 130 193 0 371 -17 124 0 370
 352 24 122 310 312 0 345 +17 358 0 355 349 354 122 352 175 0 348 -17 24 0 370 1
24 351 48 371 11 0 310 +17 310 0 36 47 345 48 124 312 0 311 -17 345 0 36 310 85
 122 344 274 0 358 -17 311 0 372 371 307 48 47 291 0 0 -15 372 1020 0 311 19 0 1
7 371 0 372 61 311 74 24 11 0 0 -17 307 0 372 311 61 43 302 301 0 0 -17 61 0 372
 307 371 59 76 278 0 302 -17 302 0 303 199 304 59 307 301 0 308 +17 308 0 314 76
 58 59 199 195 0 0 -17 76 0 314 130 308 74 61 278 0 351 +14 19 1019 0 ?0 313 372
 6 7 +0 0 0 313 23 14 313 998 0 ?19 329 309 6 20 +0 0 19 329 23 14 329 977 0 ?31
3 338 327 6 373 +0 0 313 338 23 51 20 1010 0 313 373 7 0 +.017 -.005 .392 0 1 0
 .008 0 0 1 51 373 989 0 329 374 20 0 +-.017 -.005 .392 0 -1 0 .008 0 0 -1 51 37
4 968 0 338 369 373 0 +-.017 -.005 .333 0 1 0 .008 0 0 1 14 338 956 0 ?329 316 3
35 6 374 +0 0 329 316 23 50 369 132 0 366 375 374 0 +-3469446951953615e-33 .02 .
31 0 0 -1 -1 0 0 50 375 131 0 367 376 369 0 +-.03 .02 .27 1 0 0 0 0 -1 14 367 12
6 0 ?377 366 378 6 375 -0 0 377 366 23 51 376 130 0 377 379 375 0 +0 .02 .23 0 -
1 0 .03 0 0 -1 14 377 124 0 ?380 367 381 6 376 -0 0 380 367 23 50 379 129 0 380
 382 376 0 +.03 .02 .27 1 0 0 0 0 -1 14 380 122 0 ?383 377 384 6 379 +0 0 383 37
7 23 50 382 108 0 385 386 379 0 +-693889390390723e-32 0 .255 0 -1 0 1 0 0 14 385
 68 0 ?387 383 388 6 382 +0 0 387 383 23 50 386 3 0 383 389 382 0 +-693889390390
723e-32 .02 .255 0 -1 0 1 0 0 14 383 1 0 ?385 380 390 6 386 -0 0 385 380 23 51 3
89 298 0 387 391 386 0 +0 918485099360515e-33 .28 0 0 1 .015 1 0 0 14 387 284 0
 ?364 385 392 6 389 +0 0 364 385 23 50 391 300 0 364 365 389 0 +0 .0025 .28 0 0
 1 1 0 0 14 364 288 0 ?356 387 393 6 391 -0 0 356 387 23 51 365 486 0 356 361 39
1 0 -0 386612307428832e-33 .325002 0 0 -1 .00631385812951141 -1 0 0 15 393 291 0
 121 364 0 17 121 0 393 88 88 119 268 266 0 229 -17 88 0 393 121 121 86 229 227
 0 271 -17 268 0 388 394 395 86 121 266 0 0 +17 229 0 392 118 271 119 88 227 0 3
95 +15 392 287 0 229 387 0 17 118 0 392 115 229 116 395 272 0 232 +17 271 0 392
 229 115 86 394 269 0 268 +17 395 0 388 268 396 119 118 272 0 0 -15 388 220 0 39
5 385 0 17 396 0 388 395 257 116 92 230 0 0 -17 257 0 388 396 397 90 398 237 0 0
 +17 92 0 399 105 232 90 396 230 0 259 +16 230 206 0 ?92 247 227 244 247 247 1 1
5 399 127 0 249 366 0 17 105 0 399 400 92 89 259 246 0 245 -17 232 0 399 92 249
 116 115 226 0 396 +17 259 0 384 398 245 90 105 246 0 257 +15 384 121 0 398 380
 0 17 398 0 384 108 259 94 257 237 0 397 -17 245 0 384 259 108 89 401 243 0 235
 +17 108 0 384 245 398 106 96 260 0 402 -17 401 0 390 242 235 106 245 243 0 0 -1
7 235 0 390 401 239 89 400 233 0 0 +15 390 6 0 235 383 0 17 239 0 390 235 242 93
 403 236 0 400 +17 400 0 399 102 105 93 235 233 0 0 -17 102 0 399 249 400 100 11
3 264 0 252 +17 249 0 399 232 102 103 404 247 0 0 +17 113 0 378 403 252 93 102 2
64 0 239 -17 252 0 378 113 99 100 405 250 0 404 +15 378 125 0 252 367 0 17 99 0
 378 252 403 97 111 262 0 255 +17 405 0 388 397 404 97 252 250 0 0 -17 404 0 388
 405 394 100 249 247 0 0 -17 394 0 388 404 268 103 271 269 0 249 -17 397 0 388 2
57 405 94 255 253 0 0 -17 255 0 381 111 96 97 397 253 0 405 +15 381 123 0 255 37
7 0 17 111 0 381 402 255 109 99 262 0 403 -17 96 0 381 255 402 94 108 260 0 398
 +17 402 0 381 96 111 106 242 240 0 401 -17 242 0 390 239 401 109 402 240 0 0 +1
7 403 0 378 99 113 109 239 236 0 242 -17 115 0 392 271 118 103 232 226 0 394 -14
 316 709 0 ?338 157 314 6 406 -0 0 338 157 23 14 157 705 0 ?316 332 36 6 407 +0
 0 316 332 23 50 406 723 0 316 407 408 0 +-.0125 .005 .2 0 -1 0 1 0 0 50 407 724
 0 157 0 406 0 +-.0125 -.005 .2 0 -1 0 1 0 0 50 408 722 0 332 406 409 0 +-.025 -
.005 .3625 -1 0 -1850371707708595e-31 -1850371707708595e-31 0 1 14 332 701 0 ?15
7 325 330 6 408 +0 0 157 325 23 50 409 721 0 325 408 410 0 +-.02 -.005 .4 0 0 -1
 -1 0 0 14 325 697 0 ?332 324 28 6 409 -0 0 332 324 23 50 410 720 0 324 409 411
 0 +-.015 -.005 .3675 1 0 320256641718795e-30 320256641718795e-30 0 -1 14 324 69
3 0 ?325 321 323 6 410 +0 0 325 321 23 50 411 719 0 321 410 412 0 +-815320033709
099e-31 -.005 .335 0 0 1 1 0 0 14 321 689 0 ?324 178 320 6 411 +0 0 324 178 23 5
0 412 718 0 178 411 413 0 +.015 -.005 .3675 -1 0 -186816374335964e-30 -186816374
335964e-30 0 1 14 178 685 0 ?321 169 172 6 412 +0 0 321 169 23 50 413 717 0 169
 412 414 0 +.02 -.005 .4 0 0 -1 -1 0 0 14 169 681 0 ?178 306 162 6 413 -0 0 178
 306 23 50 414 716 0 306 413 363 0 +.025 -.005 .3625 -1 0 -1850371707708595e-31
 -1850371707708595e-31 0 1 14 306 677 0 ?169 362 303 6 414 -0 0 169 362 23 50 36
3 715 0 362 414 361 0 +-.015 -.005 .325 0 0 -1 -1 0 0 14 362 673 0 ?306 341 370
 6 363 +341 341 306 341 23 15 368 357 0 415 366 399 17 415 0 368 415 415 0 225 2
22 0 0 -17 225 0 357 225 225 0 415 222 0 0 +15 357 470 0 225 356 0 30 183 747 0
 165 346 166 0 +.025 -.005 .3625 -1850371707708595e-31 0 1 17 79 0 36 85 156 77
 337 296 0 340 +17 156 0 36 79 52 53 191 189 0 337 -17 337 0 335 333 336 53 79 2
96 0 0 -17 55 0 330 191 331 53 333 289 0 156 +17 318 0 314 208 67 132 30 209 0 3
19 -17 30 0 28 26 134 65 318 209 0 31 +19 18 138 0 1 0 10 6 0 S0 74 4 CI16 index
_map_offset0 0 1 dCCZ20 16 3 0 0 416 14 2 0 0 0 0 0 0 0 0 0 0 0 0 0 0 0 0 0 81 1
 416 1113 417 1 0 14 0 0 418 81 1 14 1114 419 1 416 2 0 0 420 80 7 CCCCCDI12 leg
al_owners0 17 1 lCZ1 419 13 421 8038 0 0 0 0 0 0 0 0 0 TTTTTTTTTTTTTFTFT10 98 25
5 6 420 80 97 114 116 32 52 79 255 14 421 SDL/TYSA_UNAME80 1 417 422 423 8040 0
 0 0 0 3 5 0 0 0 TTTFFFFFFFFFFFFFF2 83 255 3 418 .917647058823529 .9176470588235
29 .917647058823529 79 17 423 SDL/TYSA_COLOUR_280 1 13 424 425 8017 0 0 0 0 0 0
 0 0 0 TTTTTTTTTTTTTFTFT3 84 255 6 15 Part 479 13 425 SDL/TYSA_NAME1 0 
