**ABCDEFGHIJKLMNOPQRSTUVWXYZabcdefghijklmnopqrstuvwxyz**************************
**PARASOLID !"#$%&'()*+,-./:;<=>?@[\]^_`{|}~0123456789**************************
**PART1;
MC=unknown;
MC_MODEL=unknown;
MC_ID=unknown;
OS=unknown;
OS_RELEASE=unknown;
FRU=Parasolid 37.0.209;
APPL=Onshape;
SITE=unknown;
USER=unknown;
FORMAT=text;
GUISE=transmit;
KEY=BTGapi::writeModels_.xmt;
FILE=BTGapi::writeModels_.xmt;
DATE=2025-07-23T19:27:13 (UTC);
**PART2;
SCH=SCH_3700209_36001;
USFLD_SIZE=0;
**PART3;
**END_OF_HEADER*****************************************************************
T51 : TRANSMIT FILE created by modeller version 370020923 SCH_3700209_36001_1300
6231 0 12 36 CCCI7 lattice222 0 CCCI4 mesh1006 0 I8 polyline1008 0 CCCCCCCDI5 ow
ner1040 0 CCCI16 boundary_lattice222 0 CCCI13 boundary_mesh1006 0 I17 boundary_p
olyline1008 0 CCCA16 index_map_offset0 0 1 dA9 index_map82 0 A17 node_id_index_m
ap82 0 A20 schema_embedding_map82 0 A5 child12 0 A14 lowest_node_id0 0 1 dA16 me
sh_offset_data206 0 Z1 156 2 3 0 0 0 0 0 0 0 1e3 1e-8 0 4 0 1 0 1 2 5 0 6 7 0 0
 0 8 9 0 0 0 0 0 0 0 0 81 255 1 2 156 10 1 11 0 0 0 12 70 11 CI9 list_type0 0 1
 uI10 notransmit0 0 1 lCCCDCCDI12 finger_index0 0 1 dI12 finger_block1012 0 CZ3
 0 4 T1 0 0 3 20 1 13 13 13 255 5 69 0 1 0 14 0 0 15 0 50 255 6 116 0 14 16 0 0
 +-.025 0 .03 0 0 -1 -1 0 0 31 255 7 120 0 9 17 0 0 +0 0 .03 0 0 1 1 0 0 .05 19
 9 CCCCCCI5 frame230 0 CA5 owner12 0 Z8 79 0 1 15 0 18 0 V0 16 255 9 103 0 ?19 0
 20 7 0 0 1 17 255 19 0 21 19 19 0 22 9 0 0 +16 20 98 0 ?23 9 24 17 0 0 1 17 23
 0 25 23 23 0 26 20 0 0 +16 24 93 0 ?27 20 28 29 0 0 1 31 17 119 0 20 29 7 0 +0
 0 .04 0 0 1 1 0 0 .05 31 29 118 0 24 30 17 0 +0 0 .04 0 0 1 1 0 0 .06 31 30 117
 0 28 0 29 0 +0 0 0 0 0 1 1 0 0 .06 16 28 88 0 ?31 24 0 30 0 0 1 17 31 0 32 31 3
1 0 33 28 0 0 +15 255 32 95 0 31 34 0 17 33 0 35 33 33 0 31 28 0 0 -15 35 130 0
 33 36 0 14 255 36 91 0 ?0 34 35 5 37 -0 0 0 34 18 14 34 96 0 ?36 38 39 5 40 -0
 0 36 38 18 50 37 112 0 36 0 40 0 +-.03 0 0 0 0 1 1 0 0 13 18 78 0 0 0 0 0 0 8 1
4 14 14 109 0 ?41 0 21 5 6 -0 0 41 0 18 14 41 106 0 ?38 14 42 5 16 -0 0 38 14 18
 15 21 108 0 19 14 0 14 38 101 0 ?34 41 43 5 44 -0 0 34 41 18 15 42 133 0 22 41
 25 51 255 16 115 0 41 44 6 0 +0 0 .015 0 0 1 .05 1 0 0 50 44 114 0 38 40 16 0 +
-.055 0 .04 0 0 -1 -1 0 0 51 40 113 0 34 37 44 0 -0 0 .015 0 0 1 .06 1 0 0 17 22
 0 42 22 22 0 19 9 0 0 -15 25 105 0 23 41 0 15 43 132 0 26 38 45 17 26 0 43 26 2
6 0 23 20 0 0 -15 45 100 0 27 38 0 17 27 0 45 27 27 0 46 24 0 0 +17 46 0 39 46 4
6 0 27 24 0 0 -15 39 131 0 46 34 32 19 15 68 0 1 0 8 5 0 S0 74 4 CI16 index_map_
offset0 0 1 dCCZ20 13 3 0 0 47 11 2 0 0 0 0 0 0 0 0 0 0 0 0 0 0 0 0 0 81 1 47 15
4 48 1 0 11 0 0 49 81 1 11 155 50 1 47 2 0 0 51 80 7 CCCCCDI12 legal_owners0 17
 1 lCZ1 50 10 52 8038 0 0 0 0 0 0 0 0 0 TTTTTTTTTTTTTFTFT10 98 255 6 51 80 97 11
4 116 32 49 79 255 14 52 SDL/TYSA_UNAME80 1 48 53 54 8040 0 0 0 0 3 5 0 0 0 TTTF
FFFFFFFFFFFFF2 83 255 3 49 .615686274509804 .811764705882353 .929411764705882 79
 17 54 SDL/TYSA_COLOUR_280 1 10 55 56 8017 0 0 0 0 0 0 0 0 0 TTTTTTTTTTTTTFTFT3
 84 255 6 12 Part 179 13 56 SDL/TYSA_NAME1 0 
