**ABCDEFGHIJKLMNOPQRSTUVWXYZabcdefghijklmnopqrstuvwxyz**************************
**PARASOLID !"#$%&'()*+,-./:;<=>?@[\]^_`{|}~0123456789**************************
**PART1;
MC=unknown;
MC_MODEL=unknown;
MC_ID=unknown;
OS=unknown;
OS_RELEASE=unknown;
FRU=Parasolid 37.0.209;
APPL=Onshape;
SITE=unknown;
USER=unknown;
FORMAT=text;
GUISE=transmit;
KEY=BTGapi::writeModels_.xmt;
FILE=BTGapi::writeModels_.xmt;
DATE=2025-07-23T19:27:13 (UTC);
**PART2;
SCH=SCH_3700209_36001;
USFLD_SIZE=0;
**PART3;
**END_OF_HEADER*****************************************************************
T51 : TRANSMIT FILE created by modeller version 370020923 SCH_3700209_36001_1300
6231 0 12 36 CCCI7 lattice222 0 CCCI4 mesh1006 0 I8 polyline1008 0 CCCCCCCDI5 ow
ner1040 0 CCCI16 boundary_lattice222 0 CCCI13 boundary_mesh1006 0 I17 boundary_p
olyline1008 0 CCCA16 index_map_offset0 0 1 dA9 index_map82 0 A17 node_id_index_m
ap82 0 A20 schema_embedding_map82 0 A5 child12 0 A14 lowest_node_id0 0 1 dA16 me
sh_offset_data206 0 Z1 354 2 3 0 0 0 0 0 0 0 1e3 1e-8 0 0 4 1 0 1 2 5 0 6 7 8 0
 0 9 10 11 0 0 0 0 0 0 0 81 255 1 2 354 12 1 13 0 0 0 14 70 11 CI9 list_type0 0
 1 uI10 notransmit0 0 1 lCCCDCCDI12 finger_index0 0 1 dI12 finger_block1012 0 CZ
3 0 4 T1 0 0 3 20 1 15 15 13 255 5 302 0 1 0 16 0 0 17 0 51 255 6 297 0 18 19 0
 0 --765404249467096e-33 -.035 .1299999952316284 0 1 0 .0125 0 0 1 30 255 7 301
 0 20 21 0 0 +-.035 -.035 .23 0 1 0 29 255 8 273 0 22 23 0 .035 0 .23 19 9 CCCCC
CI5 frame230 0 CA5 owner12 0 Z9 160 0 1 17 0 24 0 V0 16 255 10 277 0 ?25 0 20 26
 0 0 1 18 255 11 154 0 27 0 28 29 ?1 17 255 27 0 30 25 31 11 32 33 0 34 -18 28 1
49 0 35 11 36 37 ?1 29 29 156 0 11 37 38 .035 -.035 .23 29 37 151 0 28 39 29 .03
5 -.035 .1299999952316284 29 38 276 0 40 29 41 -.035 0 .23 18 40 263 0 42 43 0 3
8 ?1 29 41 275 0 43 38 23 -.035 0 .1299999952316284 18 43 259 0 44 45 40 41 ?1 2
9 23 274 0 45 41 8 .035 0 .1299999952316284 18 45 255 0 46 22 43 23 ?1 17 46 0 4
7 48 49 45 50 51 0 52 +18 22 251 0 53 54 45 8 ?1 17 53 0 55 56 57 22 42 58 0 25
 -18 54 129 0 32 36 22 59 ?1 17 32 0 60 61 34 54 27 33 0 31 +18 36 134 0 61 28 5
4 39 ?1 29 59 131 0 54 0 39 -.035 -.035 .23 29 39 136 0 36 59 37 -.035 -.035 .12
99999952316284 17 61 0 60 35 32 36 62 63 0 64 +15 255 60 164 0 34 65 66 17 35 0
 60 34 61 28 67 68 0 48 +17 62 0 69 70 64 54 61 63 0 0 -16 63 64 0 ?61 68 33 71
 0 0 1 17 64 0 69 62 44 36 49 72 0 67 -15 69 285 0 44 73 0 17 44 0 69 64 70 43 5
7 74 0 49 +17 49 0 47 46 67 43 64 72 0 50 +16 72 279 0 ?49 20 75 21 0 0 1 17 67
 0 47 49 48 36 35 68 0 0 -15 47 283 0 46 76 0 17 48 0 47 67 46 28 52 75 0 77 -16
 68 69 0 ?35 78 63 79 0 0 1 16 78 84 0 ?34 75 68 80 0 0 1 31 255 79 71 0 68 71 8
0 0 +-76365253226805e-32 -.035 .1299999952316284 0 -1 0 0 0 -1 .035 30 71 66 0 6
3 81 79 0 +-.035 -.035 .179999997615814 0 0 -1 30 80 86 0 78 79 82 0 +.035 -.035
 .179999997615814 0 0 1 31 82 272 0 83 80 84 0 +-765404249467096e-33 0 .12999999
52316284 0 -1 0 0 0 -1 .0125 16 83 245 0 ?85 58 0 82 0 0 1 31 84 271 0 58 82 86
 0 +137947936623982e-32 0 .23 0 -1 0 0 0 -1 .035 16 58 239 0 ?42 74 83 84 0 0 1
 30 86 270 0 74 84 87 0 +-.035 0 .179999997615814 0 0 -1 16 74 235 0 ?44 51 58 8
6 0 0 1 31 87 269 0 51 86 88 0 +-76365253226805e-32 0 .1299999952316284 0 -1 0 0
 0 -1 .035 16 51 229 0 ?46 89 74 87 0 0 1 30 88 268 0 89 87 26 0 +.035 0 .179999
997615814 0 0 1 16 89 225 0 ?90 91 51 88 0 0 1 30 26 298 0 10 88 92 0 +.035 -.03
5 .23 0 1 0 30 92 299 0 75 26 21 0 +.035 -.035 .1299999952316284 0 1 0 16 75 278
 0 ?52 72 78 92 0 0 1 30 21 300 0 72 92 7 0 +-.035 -.035 .1299999952316284 0 1 0
 17 52 0 93 90 77 45 48 75 0 56 +15 93 281 0 90 16 0 17 90 0 93 94 52 22 56 89 0
 0 +17 77 0 93 52 94 28 34 78 0 0 -17 56 0 55 50 53 45 90 89 0 0 -15 55 223 0 56
 95 96 17 50 0 55 57 56 43 46 51 0 0 -17 57 0 55 53 50 40 44 74 0 0 -14 255 95 2
09 0 ?0 65 55 5 97 -0 0 0 65 24 15 96 224 0 85 95 0 17 85 0 96 85 85 0 98 83 0 0
 +17 98 0 99 98 98 0 85 83 0 0 -15 99 291 0 98 18 0 14 18 290 0 ?65 76 100 5 6 +
0 0 65 76 24 14 65 1 0 ?95 18 60 5 101 +0 0 95 18 24 14 76 284 0 ?18 73 47 5 102
 -0 0 18 73 24 15 100 289 0 103 18 99 13 24 161 0 0 0 0 0 0 9 16 14 16 282 0 ?10
4 0 93 5 105 -0 0 104 0 24 14 104 288 0 ?73 16 30 5 19 -0 0 73 16 24 50 255 105
 293 0 16 97 102 0 +.035 -.035 .179999997615814 -1 0 0 0 0 1 50 97 267 0 95 101
 105 0 +-.0125 0 .2 0 -1 0 1 0 0 51 102 294 0 76 105 106 0 --76365253226805e-32
 -.035 .1299999952316284 0 1 0 .035 0 0 1 50 106 295 0 73 102 19 0 +-.035 -.035
 .179999997615814 1 0 0 0 0 -1 14 73 286 0 ?76 104 69 5 106 -0 0 76 104 24 51 19
 296 0 104 106 6 0 -137947936623982e-32 -.035 .23 0 1 0 .035 0 0 1 50 101 3 0 65
 0 97 0 +-.0125 -.035 .2 0 -1 0 1 0 0 15 30 287 0 42 104 0 17 42 0 30 31 25 40 5
3 58 0 70 +17 31 0 30 27 42 54 70 20 0 62 -17 25 0 30 42 27 22 94 10 0 90 +17 70
 0 69 44 62 40 31 20 0 57 +16 20 280 0 ?70 10 72 7 0 0 1 17 94 0 93 77 90 11 25
 10 0 0 -17 103 0 100 103 103 0 107 91 0 0 +17 107 0 66 107 107 0 103 91 0 0 -16
 91 34 0 ?103 33 89 108 0 0 1 16 33 59 0 ?32 63 91 81 0 0 1 31 108 36 0 91 0 81
 0 +-765404249467096e-33 -.035 .1299999952316284 0 -1 0 0 0 -1 .0125 31 81 61 0
 33 108 71 0 +137947936623982e-32 -.035 .23 0 -1 0 0 0 -1 .035 15 66 10 0 107 65
 0 17 34 0 60 32 35 11 77 78 0 94 +19 17 303 0 1 0 9 5 0 S0 74 4 CI16 index_map_
offset0 0 1 dCCZ20 15 3 0 0 109 13 2 0 0 0 0 0 0 0 0 0 0 0 0 0 0 0 0 0 81 1 109
 352 110 1 0 13 0 0 111 81 1 13 353 112 1 109 2 0 0 113 80 7 CCCCCDI12 legal_own
ers0 17 1 lCZ1 112 12 114 8038 0 0 0 0 0 0 0 0 0 TTTTTTTTTTTTTFTFT10 98 255 6 11
3 80 97 114 116 32 51 79 255 14 114 SDL/TYSA_UNAME80 1 110 115 116 8040 0 0 0 0
 3 5 0 0 0 TTTFFFFFFFFFFFFFF2 83 255 3 111 .231372549019608 .380392156862745 .70
5882352941177 79 17 116 SDL/TYSA_COLOUR_280 1 12 117 118 8017 0 0 0 0 0 0 0 0 0
 TTTTTTTTTTTTTFTFT3 84 255 6 14 Part 379 13 118 SDL/TYSA_NAME1 0 
