**ABCDEFGHIJKLMNOPQRSTUVWXYZabcdefghijklmnopqrstuvwxyz**************************
**PARASOLID !"#$%&'()*+,-./:;<=>?@[\]^_`{|}~0123456789**************************
**PART1;
MC=unknown;
MC_MODEL=unknown;
MC_ID=unknown;
OS=unknown;
OS_RELEASE=unknown;
FRU=Parasolid 37.0.209;
APPL=Onshape;
SITE=unknown;
USER=unknown;
FORMAT=text;
GUISE=transmit;
KEY=BTGapi::writeModels_.xmt;
FILE=BTGapi::writeModels_.xmt;
DATE=2025-07-23T19:27:13 (UTC);
**PART2;
SCH=SCH_3700209_36001;
USFLD_SIZE=0;
**PART3;
**END_OF_HEADER*****************************************************************
T51 : TRANSMIT FILE created by modeller version 370020923 SCH_3700209_36001_1300
6231 0 12 36 CCCI7 lattice222 0 CCCI4 mesh1006 0 I8 polyline1008 0 CCCCCCCDI5 ow
ner1040 0 CCCI16 boundary_lattice222 0 CCCI13 boundary_mesh1006 0 I17 boundary_p
olyline1008 0 CCCA16 index_map_offset0 0 1 dA9 index_map82 0 A17 node_id_index_m
ap82 0 A20 schema_embedding_map82 0 A5 child12 0 A14 lowest_node_id0 0 1 dA16 me
sh_offset_data206 0 Z1 148 2 3 0 0 0 0 0 0 0 1e3 1e-8 0 4 5 1 0 1 2 6 0 7 8 9 0
 0 10 11 12 0 0 0 0 0 0 0 81 255 1 2 148 13 1 14 0 0 0 15 70 11 CI9 list_type0 0
 1 uI10 notransmit0 0 1 lCCCDCCDI12 finger_index0 0 1 dI12 finger_block1012 0 CZ
3 0 4 T1 0 0 3 20 1 16 16 13 255 6 5 0 1 0 17 0 0 18 0 51 255 7 26 0 19 20 0 21
 -0 0 .150002 0 0 -1 .05 -1 0 0 30 255 8 55 0 11 22 0 0 +-.05 0 .150002 0 0 -1 2
9 255 9 47 0 12 23 0 .05 0 .0907864035883649 19 9 CCCCCCI5 frame230 0 CA5 owner1
2 0 Z10 1 0 1 18 0 24 0 V0 16 255 11 53 0 ?25 0 26 8 0 0 1 18 255 12 45 0 27 0 2
8 9 ?1 17 255 27 0 29 30 25 12 31 32 0 33 +18 28 95 0 34 12 35 23 ?1 17 34 0 29
 25 30 28 36 37 0 38 -18 35 96 0 30 28 39 40 ?1 29 23 127 0 28 40 9 -.05 0 .15 2
9 40 128 0 35 41 23 .05 0 .15 29 41 129 0 39 0 40 -.05 0 .0907864035883649 18 39
 94 0 25 35 0 41 ?1 17 25 0 29 27 34 39 38 11 0 31 +15 255 29 105 0 25 42 0 17 3
8 0 43 44 45 28 25 11 0 46 -17 31 0 47 33 33 39 27 32 0 45 -15 47 101 0 33 48 0
 17 33 0 47 31 31 12 45 26 0 49 +16 32 79 0 ?27 37 0 50 0 0 1 17 45 0 43 38 49 3
9 33 26 0 0 -15 43 54 0 38 19 0 17 49 0 43 45 44 12 30 51 0 0 -16 26 50 0 ?33 11
 51 22 0 0 1 16 51 46 0 ?30 26 52 53 0 0 1 38 12 CCCCCCCCCCCA17 intersection_dat
a204 0 Z22 52 0 26 53 8 0 +7 54 55 56 57 58 30 53 48 0 51 59 22 0 -.05 0 .150002
 0 0 -1 51 54 121 0 48 60 61 62 -0 -.3003119313957205 .15 0 1 0 .0775 0 0 1 40 2
55 11 55 0 1 11 .003694960320861 .3942166358817885 ??-.05 0 .0907864035883649 -.
0478622116360018 -.01446404844124136 .0890454374364759 -.0419666456618361 -.0271
808876215236 .0848459467730987 -.03142603920672105 -.0388896394914845 .079157540
5580973 -.01540705291333105 -.0475670339681362 .0740469044704179 .00122522563405
0754 -.0499849859672449 .0725096856236493 .01541833088582675 -.0475633795339982
 .0740491930741012 .0280090890011722 -.0414184854059684 .0777383854780118 .03929
683834920285 -.03091534401808625 .0832017328386685 .0476313093306674 -.015207181
57471265 .0888648352300717 .05 2393901534771205e-33 .0907864035883649 41 3 CI8 t
erm_use0 0 1 cCZ1 56 L?-.05 0 .0907864035883649 41 1 57 L?.05 2393901534771205e-
33 .0907864035883649 204 2 17 INTERSECTION_DATA17 Intersection data7 uv_type0 0
 1 u6 values0 1 1 fT44 58 4 0 .0592155964116351 3.84282701817286 .30031193139572
05 5.98970970181843 .0609565625635241 3.80725082394016 .285847882954479 5.708443
91306758 .0651560532269014 3.713819038407585 .273131043774197 5.39203891491163 .
0708444594419027 3.559115431438015 .261422291904236 5.02562736965278 .0759550955
295821 3.34172667891551 .2527448974275845 4.68788201466533 .0774923143763507 3.1
25782631940985 .2503269454284755 4.398913485610005 .0759528069258988 2.941310140
01206 .2527485518617225 4.117783753553715 .0722636145219882 2.771815561314845 .2
58893445989752 3.808179256958195 .0668002671613315 2.60982699084261 .26939658737
7634 3.450631998252375 .0611371647699283 2.479716980507275 .285104749821008 3.14
1592653589795 .0592155964116351 2.440358289006725 .3003119313957205 14 255 48 10
6 0 ?42 63 47 6 54 +0 0 42 63 24 50 255 60 122 0 42 0 54 0 +0 0 .15 0 -1 0 1 0 0
 50 61 23 0 63 54 20 0 +-.025 0 .03 0 0 -1 -1 0 0 141 255 62 22 62 62 54 14 63 1
3 0 ?48 19 64 6 61 +0 0 48 19 24 50 20 25 0 17 61 7 0 +0 0 .15 0 0 1 1 0 0 14 17
 6 0 ?19 0 65 6 20 +0 0 19 0 24 14 19 9 0 ?63 17 66 6 7 -0 0 63 17 24 15 65 8 0
 46 17 0 13 24 3 0 0 0 0 0 0 10 17 17 46 0 65 36 36 28 44 67 0 0 +17 36 0 65 46
 46 35 34 37 0 44 +17 44 0 43 49 38 35 46 67 0 0 -16 67 22 0 ?46 52 37 59 0 0 1
 16 52 18 0 ?68 51 67 69 0 0 1 16 37 76 0 ?36 67 32 70 0 0 1 31 255 59 27 0 67 6
9 53 0 +0 0 .15 0 0 1 1 0 0 .05 31 69 24 0 52 70 59 0 +0 0 .03 0 0 1 1 0 0 .05 3
0 70 124 0 37 50 69 0 +0 0 .15 1 0 0 31 50 125 0 32 0 70 0 +0 0 .15 0 -1 0 0 0 -
1 .0775 17 68 0 66 68 68 0 71 52 0 0 +15 66 11 0 68 19 43 17 71 0 64 71 71 0 68
 52 0 0 -15 64 17 0 71 63 0 14 42 115 0 ?0 48 29 6 60 +0 0 0 48 24 17 30 0 29 34
 27 35 49 51 0 36 +19 18 4 0 1 0 10 6 0 S0 141 21 22 21 21 7 74 4 CI16 index_map
_offset0 0 1 dCCZ20 16 3 0 0 72 14 2 0 0 0 0 0 0 0 0 0 0 0 0 0 0 0 0 0 81 1 72 1
46 73 1 0 14 0 0 74 81 1 14 147 75 1 72 2 0 0 76 80 7 CCCCCDI12 legal_owners0 17
 1 lCZ1 75 13 77 8038 0 0 0 0 0 0 0 0 0 TTTTTTTTTTTTTFTFT10 98 255 6 76 80 97 11
4 116 32 50 79 255 14 77 SDL/TYSA_UNAME80 1 73 78 79 8040 0 0 0 0 3 5 0 0 0 TTTF
FFFFFFFFFFFFF2 83 255 3 74 .647058823529412 .647058823529412 .647058823529412 79
 17 79 SDL/TYSA_COLOUR_280 1 13 80 81 8017 0 0 0 0 0 0 0 0 0 TTTTTTTTTTTTTFTFT3
 84 255 6 15 Part 279 13 81 SDL/TYSA_NAME1 0 
